<mxfile host="app.diagrams.net" modified="2023-04-11T10:47:41.701Z" agent="Mozilla/5.0 (Windows NT 10.0; Win64; x64) AppleWebKit/537.36 (KHTML, like Gecko) Chrome/112.0.0.0 Safari/537.36 Edg/112.0.1722.34" etag="TqlI8hTXStb51YwIDwUC" version="21.1.5" type="device">
  <diagram id="1lxZCYnFscGEQPpjhnhe" name="Страница 1">
    <mxGraphModel dx="1400" dy="764" grid="1" gridSize="10" guides="1" tooltips="1" connect="1" arrows="1" fold="1" page="1" pageScale="1" pageWidth="827" pageHeight="1169" math="0" shadow="0">
      <root>
        <mxCell id="0" />
        <mxCell id="1" parent="0" />
        <mxCell id="Ij-mmcF7UM5DsKZ4tCo_-4" value="Поиск интересующего рейса" style="rounded=0;whiteSpace=wrap;html=1;" parent="1" vertex="1">
          <mxGeometry x="340" y="90" width="110" height="50" as="geometry" />
        </mxCell>
        <mxCell id="2hDDObLMApTZFuo7tPoO-7" value="" style="edgeStyle=orthogonalEdgeStyle;rounded=0;orthogonalLoop=1;jettySize=auto;html=1;" edge="1" parent="1" source="2hDDObLMApTZFuo7tPoO-2" target="Ij-mmcF7UM5DsKZ4tCo_-4">
          <mxGeometry relative="1" as="geometry" />
        </mxCell>
        <mxCell id="2hDDObLMApTZFuo7tPoO-2" value="" style="ellipse;html=1;shape=startState;fillColor=#000000;strokeColor=#ff0000;" vertex="1" parent="1">
          <mxGeometry x="380" y="10" width="30" height="30" as="geometry" />
        </mxCell>
        <mxCell id="2hDDObLMApTZFuo7tPoO-3" value="" style="edgeStyle=orthogonalEdgeStyle;rounded=0;orthogonalLoop=1;jettySize=auto;html=1;entryX=0.5;entryY=0;entryDx=0;entryDy=0;" edge="1" parent="1">
          <mxGeometry relative="1" as="geometry">
            <mxPoint x="387" y="140" as="sourcePoint" />
            <mxPoint x="389" y="210" as="targetPoint" />
            <Array as="points">
              <mxPoint x="389" y="140" />
            </Array>
          </mxGeometry>
        </mxCell>
        <mxCell id="2hDDObLMApTZFuo7tPoO-4" value="Есть&amp;nbsp;&lt;br&gt;свободные&lt;br&gt;места?" style="rhombus;whiteSpace=wrap;html=1;fillColor=#ffffc0;strokeColor=#000000;" vertex="1" parent="1">
          <mxGeometry x="348" y="210" width="80" height="80" as="geometry" />
        </mxCell>
        <mxCell id="2hDDObLMApTZFuo7tPoO-5" value="нет" style="edgeStyle=orthogonalEdgeStyle;html=1;align=left;verticalAlign=bottom;endArrow=open;endSize=8;strokeColor=#080000;rounded=0;exitX=1;exitY=0.5;exitDx=0;exitDy=0;" edge="1" parent="1">
          <mxGeometry x="-1" y="12" relative="1" as="geometry">
            <mxPoint x="505" y="340" as="targetPoint" />
            <Array as="points">
              <mxPoint x="500" y="250" />
              <mxPoint x="500" y="310" />
              <mxPoint x="505" y="310" />
            </Array>
            <mxPoint x="-7" y="2" as="offset" />
            <mxPoint x="428" y="250" as="sourcePoint" />
          </mxGeometry>
        </mxCell>
        <mxCell id="2hDDObLMApTZFuo7tPoO-6" value="да" style="edgeStyle=orthogonalEdgeStyle;html=1;align=left;verticalAlign=top;endArrow=open;endSize=8;strokeColor=#000000;rounded=0;entryX=0.5;entryY=0;entryDx=0;entryDy=0;" edge="1" parent="1" target="2hDDObLMApTZFuo7tPoO-9">
          <mxGeometry x="-0.7314" y="-30" relative="1" as="geometry">
            <mxPoint x="311" y="340" as="targetPoint" />
            <Array as="points">
              <mxPoint x="311" y="250" />
              <mxPoint x="311" y="340" />
              <mxPoint x="313" y="340" />
            </Array>
            <mxPoint as="offset" />
            <mxPoint x="348" y="250" as="sourcePoint" />
          </mxGeometry>
        </mxCell>
        <mxCell id="2hDDObLMApTZFuo7tPoO-28" style="edgeStyle=orthogonalEdgeStyle;rounded=0;orthogonalLoop=1;jettySize=auto;html=1;entryX=0.5;entryY=0;entryDx=0;entryDy=0;" edge="1" parent="1" source="2hDDObLMApTZFuo7tPoO-8" target="2hDDObLMApTZFuo7tPoO-22">
          <mxGeometry relative="1" as="geometry" />
        </mxCell>
        <mxCell id="2hDDObLMApTZFuo7tPoO-8" value="Поиск интересующего рейса" style="rounded=0;whiteSpace=wrap;html=1;" vertex="1" parent="1">
          <mxGeometry x="450" y="340" width="110" height="50" as="geometry" />
        </mxCell>
        <mxCell id="2hDDObLMApTZFuo7tPoO-14" style="edgeStyle=orthogonalEdgeStyle;rounded=0;orthogonalLoop=1;jettySize=auto;html=1;entryX=0.5;entryY=0;entryDx=0;entryDy=0;" edge="1" parent="1" source="2hDDObLMApTZFuo7tPoO-9" target="2hDDObLMApTZFuo7tPoO-11">
          <mxGeometry relative="1" as="geometry" />
        </mxCell>
        <mxCell id="2hDDObLMApTZFuo7tPoO-9" value="Выбор места" style="rounded=0;whiteSpace=wrap;html=1;" vertex="1" parent="1">
          <mxGeometry x="260" y="360" width="106" height="40" as="geometry" />
        </mxCell>
        <mxCell id="2hDDObLMApTZFuo7tPoO-11" value="Ввод персональных данных" style="rounded=0;whiteSpace=wrap;html=1;" vertex="1" parent="1">
          <mxGeometry x="330" y="460" width="110" height="50" as="geometry" />
        </mxCell>
        <mxCell id="2hDDObLMApTZFuo7tPoO-15" value="" style="edgeStyle=orthogonalEdgeStyle;rounded=0;orthogonalLoop=1;jettySize=auto;html=1;" edge="1" parent="1">
          <mxGeometry relative="1" as="geometry">
            <mxPoint x="387.54999999999995" y="510" as="sourcePoint" />
            <mxPoint x="388" y="560" as="targetPoint" />
            <Array as="points">
              <mxPoint x="388" y="520" />
              <mxPoint x="388" y="520" />
            </Array>
          </mxGeometry>
        </mxCell>
        <mxCell id="2hDDObLMApTZFuo7tPoO-19" style="edgeStyle=orthogonalEdgeStyle;rounded=0;orthogonalLoop=1;jettySize=auto;html=1;entryX=0.5;entryY=0;entryDx=0;entryDy=0;" edge="1" parent="1" source="2hDDObLMApTZFuo7tPoO-16" target="2hDDObLMApTZFuo7tPoO-18">
          <mxGeometry relative="1" as="geometry" />
        </mxCell>
        <mxCell id="2hDDObLMApTZFuo7tPoO-16" value="Выбор способа оплаты" style="rounded=0;whiteSpace=wrap;html=1;" vertex="1" parent="1">
          <mxGeometry x="335" y="560" width="106" height="40" as="geometry" />
        </mxCell>
        <mxCell id="2hDDObLMApTZFuo7tPoO-21" value="" style="edgeStyle=orthogonalEdgeStyle;rounded=0;orthogonalLoop=1;jettySize=auto;html=1;" edge="1" parent="1" source="2hDDObLMApTZFuo7tPoO-18" target="2hDDObLMApTZFuo7tPoO-20">
          <mxGeometry relative="1" as="geometry" />
        </mxCell>
        <mxCell id="2hDDObLMApTZFuo7tPoO-18" value="Оплата билета" style="rounded=0;whiteSpace=wrap;html=1;" vertex="1" parent="1">
          <mxGeometry x="335" y="640" width="106" height="40" as="geometry" />
        </mxCell>
        <mxCell id="2hDDObLMApTZFuo7tPoO-20" value="" style="ellipse;html=1;shape=endState;fillColor=#000000;strokeColor=#ff0000;" vertex="1" parent="1">
          <mxGeometry x="373" y="710" width="30" height="30" as="geometry" />
        </mxCell>
        <mxCell id="2hDDObLMApTZFuo7tPoO-24" style="edgeStyle=orthogonalEdgeStyle;rounded=0;orthogonalLoop=1;jettySize=auto;html=1;entryX=1;entryY=0.5;entryDx=0;entryDy=0;" edge="1" parent="1" source="2hDDObLMApTZFuo7tPoO-22" target="2hDDObLMApTZFuo7tPoO-9">
          <mxGeometry relative="1" as="geometry">
            <Array as="points">
              <mxPoint x="423" y="450" />
              <mxPoint x="423" y="380" />
            </Array>
          </mxGeometry>
        </mxCell>
        <mxCell id="2hDDObLMApTZFuo7tPoO-31" style="edgeStyle=orthogonalEdgeStyle;rounded=0;orthogonalLoop=1;jettySize=auto;html=1;exitX=1;exitY=0.5;exitDx=0;exitDy=0;entryX=1;entryY=0.5;entryDx=0;entryDy=0;" edge="1" parent="1" source="2hDDObLMApTZFuo7tPoO-22" target="2hDDObLMApTZFuo7tPoO-20">
          <mxGeometry relative="1" as="geometry" />
        </mxCell>
        <mxCell id="2hDDObLMApTZFuo7tPoO-22" value="Есть&amp;nbsp;&lt;br&gt;свободные&lt;br&gt;места?" style="rhombus;whiteSpace=wrap;html=1;fillColor=#ffffc0;strokeColor=#000000;" vertex="1" parent="1">
          <mxGeometry x="480" y="420" width="80" height="80" as="geometry" />
        </mxCell>
        <mxCell id="2hDDObLMApTZFuo7tPoO-27" value="да" style="text;html=1;strokeColor=none;fillColor=none;align=center;verticalAlign=middle;whiteSpace=wrap;rounded=0;" vertex="1" parent="1">
          <mxGeometry x="430" y="420" width="60" height="30" as="geometry" />
        </mxCell>
        <mxCell id="2hDDObLMApTZFuo7tPoO-30" value="нет" style="text;html=1;strokeColor=none;fillColor=none;align=center;verticalAlign=middle;whiteSpace=wrap;rounded=0;" vertex="1" parent="1">
          <mxGeometry x="570" y="430" width="60" height="30" as="geometry" />
        </mxCell>
      </root>
    </mxGraphModel>
  </diagram>
</mxfile>
